PathFileType	4	(X/Y/Z)	TVC_4_BWA_7_walk_RCNL2025.trc
DataRate	CameraRate	NumFrames	NumMarkers	Units	OrigDataRate	OrigDataStartFrame	OrigNumFrames
100	100	5	27	mm	100	178	474
Frame#	Time	R_Shoulder			L_Shoulder			C7			J_Notch			R_Elbow			L_Elbow			R_Wrist			L_Wrist			R_Asis			L_Asis			R_Psis			L_Psis			Sacral			Thoracic			Sternum			R_Thigh_Lateral			R_Knee_Lateral			R_Shank_Lateral			R_Ankle_Lateral			R_Heel			R_Toe			L_Thigh_Lateral			L_Knee_Lateral			L_Shank_Lateral			L_Ankle_Lateral			L_Heel			L_Toe		
		X1	Y1	Z1	X2	Y2	Z2	X3	Y3	Z3	X4	Y4	Z4	X5	Y5	Z5	X6	Y6	Z6	X7	Y7	Z7	X8	Y8	Z8	X9	Y9	Z9	X10	Y10	Z10	X11	Y11	Z11	X12	Y12	Z12	X13	Y13	Z13	X14	Y14	Z14	X15	Y15	Z15	X16	Y16	Z16	X17	Y17	Z17	X18	Y18	Z18	X19	Y19	Z19	X20	Y20	Z20	X21	Y21	Z21	X22	Y22	Z22	X23	Y23	Z23	X24	Y24	Z24	X25	Y25	Z25	X26	Y26	Z26	X27	Y27	Z27
178	1.77000000	-391.868713	1312.352905	-47.451218	-376.750977	1319.265625	-428.869354	-446.426514	1380.469360	-227.062927	-301.282501	1260.060791	-244.740051	-399.138672	998.010437	28.089306	-473.557068	1002.463440	-473.245667	-259.797295	810.525635	9.449661	-430.021606	790.577118	-477.749069	-395.218628	860.498779	-61.120529	-403.937836	865.599670	-411.337250	-543.338013	904.308533	-177.959900	-543.445374	906.186829	-270.981140	-543.391693	905.247681	-224.470520	-527.206421	1135.225220	-225.920975	-263.264374	1069.622070	-241.691086	-355.936646	514.638855	-38.070332	-372.669678	428.479980	-86.221672	-491.708252	323.919312	-20.142929	-649.135925	178.585846	-106.901802	-682.381287	206.410172	-155.329544	-570.686096	75.093056	-128.816116	-365.523010	507.547211	-408.336304	-361.561768	426.845703	-356.177734	-367.458588	301.206757	-393.814850	-384.618866	56.365116	-296.466064	-427.794708	50.213135	-246.916992	-248.472031	42.254913	-287.236328
179	1.78000000	-383.001617	1312.766113	-47.348106	-366.235291	1320.254639	-428.602631	-436.744202	1381.410522	-227.135651	-291.859955	1260.608398	-244.363480	-392.823029	998.256531	27.409018	-459.569305	1002.545410	-475.439575	-256.372780	808.503174	9.126525	-410.814438	791.727936	-479.162323	-387.093994	861.858704	-61.092236	-395.646698	865.735291	-411.562744	-534.952454	905.512024	-178.514069	-534.923401	907.338135	-271.514008	-534.937927	906.425079	-225.014038	-518.044861	1136.307739	-226.659103	-254.259766	1069.906738	-241.214066	-341.286407	517.583008	-37.663754	-354.443573	430.913391	-85.845062	-471.181763	324.960297	-19.762903	-625.891479	176.990295	-105.322769	-659.857788	202.969589	-154.508148	-544.427002	75.542671	-124.125107	-359.821472	507.660492	-408.408661	-357.639465	426.742188	-356.206818	-364.633850	301.231537	-393.686890	-384.508636	56.399826	-296.361603	-427.778656	50.478535	-246.901077	-248.466965	42.140030	-287.279510
180	1.79000000	-374.218353	1313.040771	-47.178680	-355.749207	1321.154663	-428.261353	-427.106659	1382.247681	-227.142731	-282.501648	1261.040161	-243.901352	-386.577850	998.392334	26.763668	-445.433868	1002.586182	-477.670868	-253.182693	806.368927	8.883944	-391.409790	792.977051	-480.524857	-378.926361	863.180420	-61.033836	-387.573578	865.734558	-411.720398	-526.616577	906.617981	-178.984116	-526.474976	908.359436	-271.956238	-526.545776	907.488708	-225.470177	-508.950317	1137.286133	-227.383377	-245.346069	1070.084106	-240.676117	-326.489899	520.498474	-37.451466	-336.269135	433.547119	-85.637161	-450.470703	325.534912	-19.336372	-601.603638	174.148956	-103.809319	-636.567871	198.270645	-153.535248	-516.902710	75.293930	-120.034950	-353.934906	507.695587	-408.355774	-353.566406	426.620911	-356.121124	-361.925751	301.289978	-393.476410	-384.399536	56.437149	-296.252014	-427.750061	50.741745	-246.871445	-248.437195	42.046959	-287.288635
181	1.80000000	-365.512726	1313.192505	-46.950775	-345.305206	1321.968384	-427.851532	-417.517548	1382.975830	-227.089172	-273.207733	1261.359619	-243.364014	-380.399139	998.435730	26.149097	-431.160767	1002.598450	-479.924530	-250.220848	804.161011	8.724842	-371.850906	794.335754	-481.827255	-370.695190	864.448792	-60.948322	-379.674652	865.626099	-411.817993	-518.312073	907.617554	-179.361008	-518.083313	909.248596	-272.300171	-518.197693	908.433075	-225.830589	-499.916046	1138.153320	-228.086044	-236.519150	1070.165405	-240.089325	-311.525024	523.347351	-37.410122	-318.205261	436.333679	-85.555634	-429.614899	325.654785	-18.818100	-576.376648	170.166946	-102.315865	-612.554138	192.449539	-152.342682	-488.285522	74.413925	-116.643089	-347.964172	507.629089	-408.186768	-349.368561	426.471222	-355.928375	-359.330994	301.357422	-393.197510	-384.287628	56.474987	-296.137909	-427.703735	50.993217	-246.823532	-248.379379	41.977062	-287.263916
182	1.81000000	-356.877686	1313.236938	-46.671398	-334.914398	1322.698853	-427.379486	-407.979279	1383.591675	-226.980011	-263.976959	1261.571167	-242.762436	-374.285248	998.404419	25.562073	-416.763641	1002.594666	-482.184662	-247.479820	801.914215	8.658875	-352.180054	795.814026	-483.061142	-362.385223	865.648315	-60.834229	-371.900543	865.434509	-411.863861	-510.020355	908.503357	-179.637207	-509.731201	910.004883	-272.539551	-509.875778	909.254120	-226.088379	-490.934143	1138.903564	-228.758560	-227.772842	1070.161011	-239.465378	-296.428528	526.115417	-37.500351	-300.327087	439.217194	-85.554214	-408.655914	325.360962	-18.187777	-550.300476	165.162933	-100.809212	-587.839722	185.631561	-150.897919	-458.713196	72.989075	-113.984825	-341.975586	507.453033	-407.912781	-345.067474	426.284454	-355.640991	-356.792694	301.405182	-392.870270	-384.168243	56.511688	-296.021088	-427.635895	51.226021	-246.756348	-248.295547	41.927147	-287.210266
